<?xml version="1.0" encoding="UTF-8"?>
		<!DOCTYPE svg PUBLIC "-//W3C//DTD SVG 1.1//EN" "http://www.w3.org/Graphics/SVG/1.1/DTD/svg11.dtd">
		<svg version="1.1" id="Layer_1" xmlns="http://www.w3.org/2000/svg" xmlns:xlink="http://www.w3.org/1999/xlink" x="0px" y="0px"
		 width="1700px" height="723.6911275132px" viewBox="0 0 338.778125 124.31163543835"
		 style="enable-background:new 0 0 298.778125 104.31163543835;" xml:space="preserve"><style type="text/css">
<![CDATA[
.st2{fill:#1B92D0;}
.st10{fill:#BED757;}
.st18{fill:#97C949;}
.st22{fill:#6BA543;}
.st24{fill:#0661AB;}
.st29{fill:#0A4E9D;}
]]>
</style><style type='text/css'>.title{fill:#293172;}.slogan{fill:#4e7808;}</style><g transform="scale(1.8505667360629) translate(0, 0)"><g>
	<path class="st29" d="M15.796,49.746l4.355,2.734c0.907,0.572,1.99,0.572,2.899,0l4.353-2.734c0.818-0.514,1.275-1.342,1.275-2.307
		s-0.457-1.795-1.275-2.309l-4.353-2.734c-0.909-0.57-1.992-0.57-2.899,0l-4.355,2.734c-0.815,0.514-1.274,1.344-1.274,2.309
		S14.98,49.232,15.796,49.746L15.796,49.746z"/>
	<path class="st18" d="M43.175,19.809l0.008-5.219c0.003-0.966-0.457-1.797-1.275-2.311l-3.918-2.464
		c-0.859-0.542-1.875-0.571-2.766-0.079c-0.889,0.491-1.406,1.364-1.409,2.383l-0.009,5.218c0,0.966,0.456,1.796,1.274,2.312
		L39,22.111c0.861,0.543,1.875,0.571,2.765,0.08C42.656,21.699,43.173,20.827,43.175,19.809L43.175,19.809z"/>
	<path class="st22" d="M0.01,14.582L0,19.786c0,1.021,0.515,1.894,1.405,2.389c0.892,0.493,1.907,0.467,2.77-0.076l3.897-2.45
		c0.818-0.516,1.277-1.346,1.275-2.312L9.34,12.135c-0.003-1.021-0.518-1.893-1.412-2.385c-0.892-0.489-1.906-0.461-2.77,0.083
		L1.28,12.28C0.467,12.794,0.01,13.619,0.01,14.582L0.01,14.582z"/>
	<path class="st2" d="M9.384,40.794l0.01-5.219c0-0.969-0.457-1.799-1.275-2.312L4.2,30.8c-0.862-0.543-1.875-0.57-2.766-0.078
		c-0.892,0.49-1.409,1.363-1.409,2.381l-0.009,5.219c0,0.965,0.456,1.797,1.274,2.311l3.918,2.465
		c0.863,0.539,1.875,0.568,2.767,0.078S9.384,41.812,9.384,40.794L9.384,40.794z"/>
	<path class="st24" d="M33.853,35.576l0.01,5.219c0,1.016,0.518,1.889,1.408,2.381c0.892,0.49,1.903,0.461,2.767-0.08l3.918-2.463
		c0.818-0.514,1.276-1.346,1.275-2.311l-0.01-5.219c0-1.018-0.517-1.891-1.408-2.381c-0.892-0.492-1.903-0.465-2.767,0.078
		l-3.918,2.463C34.31,33.777,33.853,34.607,33.853,35.576L33.853,35.576z"/>
	<path class="st10" d="M15.796,7.777l4.355,2.736c0.907,0.57,1.99,0.57,2.899,0l4.353-2.736c0.818-0.513,1.275-1.342,1.275-2.308
		c0-0.965-0.457-1.793-1.275-2.307l-4.353-2.734c-0.909-0.571-1.992-0.571-2.899,0l-4.355,2.734
		c-0.815,0.514-1.274,1.342-1.274,2.307C14.521,6.436,14.98,7.265,15.796,7.777L15.796,7.777z"/>
</g>
</g><g transform="scale(0.0435) translate(2280.4597701149, 1417.3751199811)"><path transform="translate(0,0) rotate(180) scale(-1, 1)" d="M48 623v87h506v-138h-87v51h-234v-227h225v-88h-225v-222h78v-86h-263v86h69v537h-69z" class='title'/><path transform="translate(571,0) rotate(180) scale(-1, 1)" d="M223 551v-465h46v-86h-202v86h45v378h-73v87h184zM78 690q0 33 21 49t53 16q31 0 52.5 -15t21.5 -50t-21.5 -50.5t-52.5 -15.5q-32 0 -53 15t-21 51z" class='title'/><path transform="translate(887,0) rotate(180) scale(-1, 1)" d="M433 337q0 73 -27.5 103t-84.5 30q-42 0 -81 -17.5t-55 -52.5v-400h-111v416q0 27 -7.5 41t-25.5 14q-8 0 -12.5 -1t-9.5 -1l-6 71q17 6 37.5 9t39.5 0t34.5 -14t22.5 -32q35 33 84 45t103 12q60 0 99.5 -19.5t63 -49t33 -64.5t9.5 -66v-188q0 -36 2 -55.5t9.5 -28t21 -8 t36.5 3.5l11 -80q-41 -12 -75 -11t-58.5 17t-38.5 48t-14 82v196v0z" class='title'/><path transform="translate(1522,0) rotate(180) scale(-1, 1)" d="M391 401v57q-20 8 -44.5 13t-50.5 5q-58 0 -90 -17t-32 -46q0 -32 23.5 -48.5t77.5 -25.5q30 -8 71 -14t78 -21t63 -46t26 -89q0 -91 -58.5 -135.5t-165.5 -44.5q-65 0 -120.5 7t-104.5 20l10 145h85v-57q19 -8 48 -15.5t67 -7.5q45 0 70.5 11t38 25.5t15 29t2.5 21.5 q0 19 -11 32t-31.5 21.5t-50 14.5t-66.5 12q-92 16 -133 52t-41 103q0 46 16 76.5t45.5 49.5t71.5 27t95 8q38 0 81 -5.5t102 -19.5l-9 -138h-78z" class='title'/><path transform="translate(2085,0) rotate(180) scale(-1, 1)" d="M222 721v-168h116v-89h-117v-334q0 -52 34 -52q15 0 32 3t43 8l11 -79q-23 -5 -53.5 -11.5t-61.5 -6.5q-60 0 -87.5 47t-27.5 127v298h-89l8 89h70q9 20 15 56t6 102z" class='title'/><path transform="translate(2463,0) rotate(180) scale(-1, 1)" d="M480 111q1 -26 6 -30.5t14 -4.5q14 0 19.5 2t18.5 7l9 -71q-20 -9 -32.5 -13t-31.5 -4q-20 0 -33.5 3t-22.5 8.5t-14.5 14t-9.5 20.5h-3q-18 -12 -33 -21.5t-32.5 -16t-41.5 -10.5t-60 -4h-16q-85 3 -132.5 45.5t-47.5 131.5v15q0 43 17 74t47.5 51t73.5 29t95 9 q26 0 50.5 -0.5t47.5 -1.5q0 32 -3.5 55t-14.5 38t-30.5 22.5t-52.5 7.5q-17 0 -27.5 -0.5t-19.5 -1t-18.5 -2t-24.5 -3.5v-37l-89 -3l-15 106q18 6 41.5 12t51.5 11t59.5 8.5t64.5 3.5q67 0 104.5 -23.5t55.5 -58t22 -73t4 -68.5v-55q0 -46 0.5 -94.5t3.5 -77.5zM370 269 q-17 0 -34.5 1t-35.5 1q-81 0 -118.5 -19.5t-37.5 -70.5v-14q0 -50 30.5 -68.5t86.5 -18.5q18 0 36.5 3t33.5 12t25.5 25.5t13.5 44.5v104z" class='title'/><path transform="translate(3028,0) rotate(180) scale(-1, 1)" d="M426 427l-77 -6l-5 41q-19 0 -42 -2.5t-43 -10t-33.5 -21t-13.5 -35.5v-393h-111v444l-66 -5l-3 78q30 11 64.5 18t71.5 12v-52q26 29 61.5 46.5t91.5 17.5q24 0 50 -2.5t55 -8.5v-121z" class='title'/><path transform="translate(3478,0) rotate(180) scale(-1, 1)" d="M222 721v-168h116v-89h-117v-334q0 -52 34 -52q15 0 32 3t43 8l11 -79q-23 -5 -53.5 -11.5t-61.5 -6.5q-60 0 -87.5 47t-27.5 127v298h-89l8 89h70q9 20 15 56t6 102z" class='title'/><path transform="translate(3856,0) rotate(180) scale(-1, 1)" d="M391 401v57q-20 8 -44.5 13t-50.5 5q-58 0 -90 -17t-32 -46q0 -32 23.5 -48.5t77.5 -25.5q30 -8 71 -14t78 -21t63 -46t26 -89q0 -91 -58.5 -135.5t-165.5 -44.5q-65 0 -120.5 7t-104.5 20l10 145h85v-57q19 -8 48 -15.5t67 -7.5q45 0 70.5 11t38 25.5t15 29t2.5 21.5 q0 19 -11 32t-31.5 21.5t-50 14.5t-66.5 12q-92 16 -133 52t-41 103q0 46 16 76.5t45.5 49.5t71.5 27t95 8q38 0 81 -5.5t102 -19.5l-9 -138h-78z" class='title'/></g></svg>